<svg id="logo-15" width="49" height="48" viewBox="0 0 49 48" fill="none" xmlns="http://www.w3.org/2000/svg"> 
  <defs>
    <linearGradient id="grad" x1="0%" y1="0%" x2="100%" y2="100%">
      <stop offset="0%" style="stop-color:#17CF97; stop-opacity:1" />
      <stop offset="100%" style="stop-color:#179ECF; stop-opacity:1" />
    </linearGradient>
  </defs>
  <path d="M24.5 12.5C24.5 18.9632 19.4632 24 13.25 24H2V12.5C2 6.28679 7.03679 1.25 13.25 1.25C19.4632 1.25 24.5 6.28679 24.5 12.5Z" fill="url(#grad)"></path> 
  <path d="M24.5 35.5C24.5 29.2868 29.5368 24.25 35.75 24.25H47V35.5C47 41.7132 41.9632 46.75 35.75 46.75C29.5368 46.75 24.5 41.7132 24.5 35.5Z" fill="url(#grad)"></path> 
  <path d="M2 35.5C2 41.7132 7.03679 46.75 13.25 46.75H24.5V35.5C24.5 29.2868 19.4632 24.25 13.25 24.25C7.03679 24.25 2 29.2868 2 35.5Z" fill="url(#grad)"></path> 
  <path d="M47 12.5C47 6.28679 41.9632 1.25 35.75 1.25H24.5V12.5C24.5 18.7132 29.5368 23.75 35.75 23.75C41.9632 23.75 47 18.7132 47 12.5Z" fill="url(#grad)"></path> 
</svg> 
